<!DOCTYPE svg PUBLIC "-//W3C//DTD SVG 20010904//EN" "http://www.w3.org/TR/2001/REC-SVG-20010904/DTD/svg10.dtd">
<svg version="1.0" xmlns="http://www.w3.org/2000/svg" width="1200px" height="1200px" viewBox="0 0 12000 12000" preserveAspectRatio="xMidYMid meet">
<g id="layer101" fill="#007aff" stroke="none">
 <path d="M1790 11993 c-273 -17 -609 -123 -853 -269 -196 -118 -405 -306 -541 -489 -198 -265 -306 -513 -368 -849 l-23 -121 0 -4265 0 -4265 23 -121 c78 -425 261 -775 554 -1060 287 -281 618 -450 1032 -526 l121 -23 4265 0 4265 0 121 23 c414 76 745 245 1032 526 293 285 476 635 554 1060 l23 121 0 4260 0 4260 -23 122 c-24 132 -58 258 -99 368 -29 81 -124 278 -135 283 -5 2 -8 8 -8 13 0 15 -112 179 -171 250 -67 82 -186 201 -268 268 -71 59 -235 171 -250 171 -5 0 -11 3 -13 8 -5 11 -203 106 -283 135 -138 50 -186 63 -370 99 l-110 22 -4210 1 c-2316 1 -4235 0 -4265 -2z"/>
 </g>
<g id="layer102" fill="#ffffff" stroke="none">
 <path d="M3868 9153 c-27 -2 -48 -8 -48 -13 0 -5 -20 -12 -45 -16 -25 -3 -45 -10 -45 -14 0 -5 -13 -11 -30 -15 -16 -4 -30 -11 -30 -16 0 -5 -5 -9 -10 -9 -11 0 -71 -39 -81 -53 -4 -5 -17 -14 -29 -20 -13 -7 -28 -21 -34 -32 -6 -11 -21 -30 -33 -42 -13 -12 -32 -40 -44 -62 -11 -23 -25 -41 -30 -41 -5 0 -9 -9 -9 -19 0 -11 -6 -32 -14 -48 -8 -15 -20 -41 -28 -57 -11 -24 -13 -347 -13 -1848 0 -1312 3 -1821 11 -1826 6 -4 14 -45 18 -92 4 -47 11 -86 16 -88 6 -2 10 -21 10 -43 0 -21 4 -39 9 -39 5 0 12 -27 16 -60 4 -33 11 -62 15 -65 4 -3 11 -28 15 -55 4 -28 11 -50 15 -50 5 0 12 -20 16 -45 3 -25 10 -45 14 -45 4 0 11 -16 14 -35 4 -19 11 -35 15 -35 5 0 11 -18 15 -40 3 -22 10 -40 15 -40 5 0 12 -16 15 -35 4 -19 11 -35 16 -35 4 0 11 -13 15 -30 4 -16 10 -30 15 -30 5 0 11 -14 15 -30 4 -17 10 -30 15 -30 5 0 11 -14 15 -30 4 -17 10 -30 14 -30 4 0 18 -20 30 -45 12 -25 26 -45 31 -45 4 0 11 -11 14 -25 4 -14 11 -25 16 -25 6 0 10 -7 10 -15 0 -9 7 -18 15 -21 8 -4 15 -12 15 -20 0 -8 9 -22 20 -31 11 -10 20 -23 20 -30 0 -7 3 -13 8 -13 4 0 18 -17 32 -37 14 -20 49 -60 78 -89 28 -28 52 -56 52 -61 0 -11 73 -83 84 -83 4 0 33 -25 62 -55 30 -30 58 -55 62 -55 5 0 21 -13 37 -30 16 -16 35 -30 42 -30 8 0 16 -6 19 -14 3 -8 16 -17 30 -20 13 -4 24 -11 24 -16 0 -6 5 -10 10 -10 11 0 70 -39 80 -52 3 -3 18 -10 33 -13 15 -4 27 -11 27 -16 0 -5 7 -9 15 -9 9 0 18 -6 21 -14 3 -8 19 -18 35 -21 16 -4 29 -11 29 -16 0 -5 5 -9 11 -9 7 0 30 -9 53 -19 83 -39 114 -51 130 -51 9 0 16 -4 16 -10 0 -5 18 -13 40 -16 22 -4 40 -10 40 -15 0 -4 20 -11 45 -15 25 -3 45 -10 45 -15 0 -4 20 -11 45 -15 25 -3 45 -10 45 -14 0 -5 29 -12 65 -15 36 -4 65 -11 65 -16 0 -4 32 -11 70 -15 39 -3 70 -10 70 -14 0 -4 44 -11 98 -15 53 -4 103 -12 111 -19 20 -16 832 -16 852 0 8 7 62 15 122 19 59 4 109 10 112 15 3 4 34 11 70 15 36 3 65 10 65 15 0 4 29 11 65 15 36 3 65 10 65 15 0 4 20 11 45 14 25 4 45 11 45 15 0 5 20 12 45 15 25 4 45 11 45 15 0 5 20 12 45 15 25 4 45 11 45 16 0 6 18 13 40 16 22 4 40 10 40 14 0 5 14 11 30 15 17 4 30 10 30 15 0 5 14 11 30 15 17 4 30 10 30 15 0 5 14 11 30 15 17 4 30 10 30 15 0 5 13 11 29 15 16 3 32 13 35 21 3 8 12 14 21 14 8 0 15 4 15 9 0 5 11 12 25 15 14 4 25 11 25 16 0 6 7 10 15 10 9 0 18 7 21 15 4 8 12 15 20 15 8 0 22 9 31 20 10 11 21 20 26 20 10 0 64 43 113 90 17 17 35 30 40 30 13 0 194 183 194 196 0 6 17 26 39 45 21 20 41 45 45 56 4 12 13 24 21 27 8 3 15 12 15 21 0 8 4 15 10 15 5 0 12 11 16 24 3 14 12 27 20 30 8 3 14 12 14 21 0 8 4 15 10 15 5 0 12 11 16 25 3 14 10 25 15 25 4 0 24 34 44 75 20 41 40 75 45 75 5 0 11 14 15 30 4 16 10 30 15 30 4 0 11 16 14 35 4 19 11 35 16 35 4 0 11 14 15 31 4 17 13 42 21 57 8 15 14 35 14 45 0 9 4 17 9 17 5 0 12 20 15 45 4 25 11 45 15 45 5 0 12 20 15 45 4 25 11 45 16 45 4 0 11 27 15 60 4 33 11 63 16 66 5 3 9 20 9 39 0 19 4 36 9 39 5 3 12 43 16 88 4 46 12 89 19 97 16 20 16 3722 0 3742 -7 8 -15 29 -19 47 -3 17 -11 32 -16 32 -5 0 -9 7 -9 15 0 8 -4 15 -10 15 -5 0 -10 6 -10 13 0 28 -44 91 -104 150 -68 67 -119 107 -136 107 -5 0 -10 4 -10 9 0 5 -13 12 -30 16 -16 4 -30 10 -30 15 0 4 -19 10 -42 14 -23 4 -46 12 -49 18 -10 16 -261 17 -280 2 -8 -6 -33 -14 -56 -18 -38 -5 -101 -32 -113 -47 -3 -4 -15 -9 -27 -13 -13 -4 -23 -12 -23 -17 0 -5 -5 -9 -11 -9 -14 0 -136 -119 -154 -150 -8 -14 -17 -33 -21 -42 -3 -10 -10 -18 -14 -18 -5 0 -11 -13 -15 -30 -4 -16 -10 -30 -15 -30 -4 0 -11 -19 -15 -42 -4 -24 -13 -46 -19 -50 -8 -5 -12 -479 -14 -1784 -1 -1006 -6 -1782 -11 -1788 -5 -6 -12 -46 -16 -88 -4 -43 -11 -78 -16 -78 -4 0 -11 -20 -15 -45 -3 -25 -10 -45 -15 -45 -4 0 -11 -20 -15 -45 -3 -25 -10 -45 -14 -45 -5 0 -11 -14 -15 -30 -4 -16 -10 -30 -15 -30 -5 0 -11 -14 -15 -30 -4 -16 -10 -30 -15 -30 -4 0 -11 -8 -14 -17 -13 -35 -37 -73 -47 -73 -5 0 -9 -6 -9 -13 0 -7 -42 -54 -94 -103 -105 -100 -121 -114 -134 -114 -5 0 -15 -7 -22 -15 -7 -8 -30 -20 -51 -27 -22 -6 -39 -15 -39 -20 0 -4 -5 -8 -11 -8 -10 0 -43 -13 -114 -45 -16 -8 -41 -16 -55 -20 -53 -13 -105 -29 -115 -36 -5 -4 -41 -10 -80 -14 -38 -4 -76 -13 -84 -19 -10 -8 -117 -11 -356 -11 -239 0 -346 3 -356 11 -8 6 -45 15 -84 19 -38 4 -74 10 -80 14 -10 7 -62 23 -115 36 -14 4 -38 12 -55 20 -16 7 -41 18 -55 23 -95 41 -158 73 -174 91 -11 12 -25 21 -33 21 -7 0 -16 7 -19 15 -4 8 -11 15 -18 15 -15 0 -166 152 -166 168 0 6 -5 12 -10 12 -6 0 -15 10 -20 23 -11 25 -32 59 -41 67 -3 3 -9 12 -12 20 -4 8 -18 34 -31 58 -14 23 -27 56 -31 72 -4 17 -10 30 -15 30 -4 0 -11 20 -14 45 -4 25 -11 45 -15 45 -5 0 -11 21 -15 46 -3 26 -10 52 -16 59 -5 6 -13 51 -16 98 -4 48 -11 87 -15 87 -5 0 -10 781 -11 1735 -2 1275 -6 1738 -14 1743 -6 4 -15 26 -19 50 -4 23 -11 42 -15 42 -5 0 -11 14 -15 30 -4 17 -10 30 -15 30 -4 0 -11 11 -14 25 -4 14 -11 25 -16 25 -6 0 -10 6 -10 13 0 15 -134 147 -149 147 -6 0 -11 4 -11 9 0 5 -10 13 -22 17 -13 4 -25 9 -28 13 -10 13 -76 41 -110 48 -19 3 -37 10 -40 14 -7 9 -187 18 -252 12z"/>
 </g>

</svg>